<?xml version="1.0" encoding="UTF-8"?>
<svg id="Layer_2" data-name="Layer 2" xmlns="http://www.w3.org/2000/svg" xmlns:xlink="http://www.w3.org/1999/xlink" viewBox="0 0 220.2 186.8">
  <defs>
    <style>
      .cls-1 {
        fill: url(#linear-gradient-2);
      }

      .cls-2 {
        fill: url(#linear-gradient-5);
      }

      .cls-3 {
        fill: url(#linear-gradient-3);
      }

      .cls-4 {
        fill: url(#linear-gradient);
      }

      .cls-5 {
        fill: #231f20;
      }

      .cls-6 {
        fill: url(#linear-gradient-4);
      }
    </style>
    <linearGradient id="linear-gradient" x1="126.82" y1="61.46" x2="112.52" y2="111.5" gradientUnits="userSpaceOnUse">
      <stop offset=".42" stop-color="#4cbbec"/>
      <stop offset="1" stop-color="#231f20"/>
    </linearGradient>
    <linearGradient id="linear-gradient-2" x1="138.89" y1="72.83" x2="133.27" y2="118.27" gradientUnits="userSpaceOnUse">
      <stop offset=".43" stop-color="#4cbbec"/>
      <stop offset="1" stop-color="#231f20"/>
    </linearGradient>
    <linearGradient id="linear-gradient-3" x1="156.56" y1="71.42" x2="162.18" y2="120.95" gradientUnits="userSpaceOnUse">
      <stop offset=".33" stop-color="#4cbbec"/>
      <stop offset="1" stop-color="#231f20"/>
    </linearGradient>
    <linearGradient id="linear-gradient-4" x1="204.58" y1="71.42" x2="210.2" y2="120.95" xlink:href="#linear-gradient-3"/>
    <linearGradient id="linear-gradient-5" x1="178.78" y1="69.86" x2="188.99" y2="118.37" gradientUnits="userSpaceOnUse">
      <stop offset=".49" stop-color="#4cbbec"/>
      <stop offset="1" stop-color="#231f20"/>
    </linearGradient>
  </defs>
  <g id="Layer_1-2" data-name="Layer 1">
    <g>
      <path class="cls-5" d="m31.95,31.19c1.91-8.79,4.13-18.56,5.5-24.14h-.08c-3,8.57-10.58,29.06-16.05,43.71h-6.3c.99-12.95,2.48-34.79,3.25-43.76h-.15c-1.11,5.82-3.47,16.63-5.24,25.23l-3.77,18.53H2.9L13.67.71h10.05c-1,15.07-1.88,29.94-2.65,36.74h.08c2.27-6.74,9.26-24.98,14.01-36.74h9.88l-10.76,50.06h-6.52l4.21-19.58Z"/>
      <path class="cls-5" d="m58.13,36.19l-5.14,14.58h-6.98c1.81-4.75,16.51-44.75,18.54-50.06h9.92l-2.65,50.06h-6.69l.91-14.58h-7.92Zm8.31-6.08c.61-8.52,1.18-18.2,1.63-23.36h-.26c-1.08,4.13-4.68,14.92-7.55,23.36h6.18Z"/>
      <path class="cls-5" d="m83.54,50.76L94.31.71h7.92c.47,14.19,1.25,34.46,1.2,36.98h.1c1.15-6.71,2.43-13.82,4.18-22.02l3.2-14.96h6.34l-10.76,50.06h-7.68c-.39-12.11-1.28-35.06-1.27-37.81h-.08c-1.01,6.23-2.3,13.34-4.22,22.36l-3.29,15.45h-6.39Z"/>
      <path class="cls-5" d="m130.51,36.19l-5.14,14.58h-6.98c1.81-4.75,16.51-44.75,18.55-50.06h9.92l-2.65,50.06h-6.69l.91-14.58h-7.92Zm8.31-6.08c.61-8.52,1.18-18.2,1.63-23.36h-.26c-1.08,4.13-4.68,14.92-7.55,23.36h6.18Z"/>
      <path class="cls-5" d="m177.16,50.76h-5.41c.02-.85.3-2.79.6-3.93-1.97,3.49-4.96,4.64-7.79,4.64-7.39,0-8.61-6-6.82-14.42l5.06-23.54C164.61,4.96,167.5-.1,175.78,0c9.97.1,10.45,7.78,9.29,13.13l-.23,1.08h-6.72l.26-1.48c.71-3.89.51-7.02-3.2-7.02-2.67,0-4.25,1.58-5.51,7.52l-5.18,24.39c-1.09,5.06-.83,8.17,2.7,8.17,3.87,0,5.28-3.53,6.76-10.5l1.31-6.26h-5.01l1.22-5.76h11.62l-5.95,27.5Z"/>
      <path class="cls-5" d="m213.86,27.11h-10.85l-3.71,17.63h13l-2.14,6.02h-18.85L202.08.71h18.12l-1.33,6.02h-11.48l-3.05,14.36h10.88l-1.35,6.02Z"/>
    </g>
    <path class="cls-5" d="m17.88,82.3c-1.5,5.52-3.42,11.88-4.68,16.32h-.6c.96-5.94,1.56-11.52,2.28-16.32H5.34l.54,26.04c0,.9-.18,2.4-.36,3.24l-2.22,10.68h9.24l2.4-10.98c.18-.84.3-1.08.66-1.92l11.94-27.06h-9.66Z"/>
    <path class="cls-5" d="m38.46,81.7c-6,0-10.02,2.16-11.7,9.96l-4.2,19.56c-1.74,8.04,1.74,11.64,9,11.64s10.62-2.22,12.36-10.44l3.96-18.48c1.74-8.16-1.44-12.24-9.42-12.24Zm.48,9.54l-4.62,21.96c-.36,1.62-.72,2.46-1.86,2.46-1.02,0-1.26-.96-.96-2.46l4.62-21.9c.36-1.8.9-2.4,1.8-2.4,1.08,0,1.38.54,1.02,2.34Z"/>
    <path class="cls-5" d="m66,82.3l-6.6,31.14c-.36,1.5-.66,2.22-1.74,2.22-.9,0-1.14-.78-.84-2.22l6.6-31.14h-9.42l-6.24,29.46c-1.44,6.84.96,10.98,9.06,10.98s10.86-3.12,12.42-10.5l6.36-29.94h-9.6Z"/>
    <path class="cls-5" d="m90.72,82.3h-11.1l-8.46,39.96h9.3l3.6-16.86h.48c1.56,0,2.1.3,1.26,4.26-1.92,9.06-2.4,11.88-2.1,12.6h9.06c.12-1.56,1.08-6,2.16-10.74,1.32-5.82.9-7.98-1.38-9.36,2.28-.72,4.08-2.7,4.92-6.6l.6-2.76c1.44-6.66-1.14-10.5-8.34-10.5Zm-.96,9.78l-.66,3.36c-.54,2.52-1.02,3.18-2.82,3.18h-.72l1.98-9.54h.54c1.8,0,2.16.66,1.68,3Z"/>
    <polygon class="cls-4" points="128.58 89.86 130.2 82.3 111 82.3 109.38 89.86 114.3 89.86 107.46 122.26 116.76 122.26 123.6 89.86 128.58 89.86"/>
    <path class="cls-1" d="m133.8,82.3l-12.6,39.96h9.84l2.22-9h2.94l-1.2,9h9.36l4.32-39.96h-14.88Zm3.72,23.4h-2.28c1.02-3.9,3.48-13.68,3.9-15.42h.42c-.3,2.16-1.56,12.36-2.04,15.42Z"/>
    <path class="cls-3" d="m161.34,90.76c.36-1.68,1.02-1.92,1.56-1.92,1.14,0,1.26,1.02.78,3.18l-.66,2.88h8.34l.24-1.08c1.32-5.88,1.02-12.12-8.64-12.12-6.24,0-9.3,2.7-10.68,9.18-1.5,7.08,1.02,9.9,4.5,14.04,2.64,3.12,3.42,4.98,2.82,7.98-.42,2.16-.84,2.94-1.68,2.94-.9,0-1.2-.6-.72-3l.72-3.42h-9.06l-.36,1.56c-1.74,7.56.6,11.88,8.64,11.88,6.72,0,10.26-2.52,11.7-9.54,1.44-6.96-.12-9.54-5.04-15.6-2.58-3.18-3.12-3.84-2.46-6.96Z"/>
    <path class="cls-6" d="m209.36,90.76c.36-1.68,1.02-1.92,1.56-1.92,1.14,0,1.26,1.02.78,3.18l-.66,2.88h8.34l.24-1.08c1.32-5.88,1.02-12.12-8.64-12.12-6.24,0-9.3,2.7-10.68,9.18-1.5,7.08,1.02,9.9,4.5,14.04,2.64,3.12,3.42,4.98,2.82,7.98-.42,2.16-.84,2.94-1.68,2.94-.9,0-1.2-.6-.72-3l.72-3.42h-9.06l-.36,1.56c-1.74,7.56.6,11.88,8.64,11.88,6.72,0,10.26-2.52,11.7-9.54,1.44-6.96-.12-9.54-5.04-15.6-2.58-3.18-3.12-3.84-2.46-6.96Z"/>
    <path class="cls-2" d="m201.3,82.3h-10.14c-1.38,3.12-4.98,11.58-6.84,15.66h-.42l3.36-15.66h-8.88l-8.46,39.96h8.88l2.34-11.04,2.64-4.08-.18,15.12h9.3l-.9-23.34,9.3-16.62Z"/>
    <g>
      <path class="cls-5" d="m10.53,156.12l-6.52,30.25H0l6.52-30.25h4.02Z"/>
      <path class="cls-5" d="m12.89,186.37l6.52-30.25h4.79c.28,8.58.76,20.83.72,22.35h.06c.7-4.06,1.47-8.35,2.53-13.3l1.94-9.04h3.84l-6.52,30.25h-4.65c-.24-7.32-.77-21.19-.77-22.85h-.05c-.61,3.76-1.39,8.06-2.56,13.51l-1.99,9.34h-3.87Z"/>
      <path class="cls-5" d="m64.24,164.17l-3.13,14.53c-1.09,5.07-2.71,8.1-8.02,8.1s-6.67-3.45-5.63-8.47l3.2-15.14c1.05-4.97,3.55-7.5,7.81-7.5,4.83,0,6.9,3.28,5.77,8.47Zm-9.46-.96l-3.36,15.74c-.58,2.64-.19,4.43,2.09,4.43,1.94,0,2.82-1.56,3.43-4.3l3.36-15.66c.56-2.64,0-4.27-2.2-4.27-1.77,0-2.77,1.41-3.32,4.06Z"/>
      <path class="cls-5" d="m67.9,186.37l6.52-30.25h4.79c.28,8.58.76,20.83.72,22.35h.06c.7-4.06,1.47-8.35,2.53-13.3l1.94-9.04h3.84l-6.52,30.25h-4.65c-.24-7.32-.77-21.19-.77-22.85h-.05c-.61,3.76-1.39,8.06-2.56,13.51l-1.99,9.34h-3.87Z"/>
      <path class="cls-5" d="m104.31,172.08h-6.57l-2.24,10.66h7.87l-1.3,3.64h-11.41l6.52-30.25h10.97l-.8,3.64h-6.95l-1.85,8.68h6.58l-.82,3.64Z"/>
      <path class="cls-5" d="m126.54,156.12h5.53c4.89,0,6.78,2.99,5.81,7.86l-.41,2.07c-.94,4.73-2.9,7.16-8.68,7.16h-1.93l-2.82,13.16h-4.02l6.51-30.25Zm1.06,13.77h1.69c2.84,0,3.57-1.39,4.16-4.07l.38-1.8c.55-2.5.52-4.54-2.3-4.54h-1.71l-2.22,10.41Z"/>
      <path class="cls-5" d="m147.31,156.12h4.02l-5.73,26.61h7.57l-1.11,3.64h-11.26l6.52-30.25Z"/>
      <path class="cls-5" d="m165.66,177.56l-3.11,8.81h-4.22c1.1-2.87,9.99-27.04,11.23-30.25h6.01l-1.61,30.25h-4.05l.55-8.81h-4.79Zm5.03-3.67c.37-5.15.71-11,.99-14.12h-.16c-.65,2.5-2.83,9.02-4.57,14.12h3.74Z"/>
      <path class="cls-5" d="m195.36,177.97l-.14.56c-1.01,4.09-2,8.27-7.84,8.27-5.22,0-6.37-3.41-5.28-8.44l3.07-14.23c1.21-5.52,2.87-8.43,7.56-8.43,6.2,0,6.32,4.58,5.41,8.25l-.12.48h-4.04l.22-1.02c.56-2.63.39-4.26-1.71-4.26-1.76,0-2.42,1.44-3.04,4.29l-3.3,15.32c-.64,3.03-.4,4.63,1.64,4.63,1.81,0,2.47-1.52,3.16-4.38l.25-1.03h4.15Z"/>
      <path class="cls-5" d="m214.75,172.08h-6.57l-2.24,10.66h7.87l-1.29,3.64h-11.41l6.51-30.25h10.97l-.8,3.64h-6.95l-1.85,8.68h6.58l-.82,3.64Z"/>
    </g>
  </g>
</svg>