<?xml version="1.0" encoding="utf-8"?>
<!-- Generator: Adobe Illustrator 27.2.0, SVG Export Plug-In . SVG Version: 6.00 Build 0)  -->
<svg version="1.1" id="Layer_2_00000124156012717186310540000017668683033457696406_"
	 xmlns="http://www.w3.org/2000/svg" xmlns:xlink="http://www.w3.org/1999/xlink" x="0px" y="0px" viewBox="0 0 450 450"
	 style="enable-background:new 0 0 450 450;" xml:space="preserve">
<style type="text/css">
	.st0{fill:url(#SVGID_1_);}
	.st1{fill:url(#SVGID_00000029740356332815207590000007474712766052830384_);}
	.st2{fill:url(#SVGID_00000142148413054610706410000005160160023924323769_);}
	.st3{fill:#4ED9FF;}
</style>
<linearGradient id="SVGID_1_" gradientUnits="userSpaceOnUse" x1="220.6152" y1="124.0501" x2="218.6152" y2="-10.9499">
	<stop  offset="0" style="stop-color:#4ED9FF"/>
	<stop  offset="1" style="stop-color:#000000"/>
</linearGradient>
<circle class="st0" cx="219.7" cy="60.2" r="52.5"/>
<linearGradient id="SVGID_00000047049759487057172320000003843201563195280778_" gradientUnits="userSpaceOnUse" x1="131.9798" y1="269.177" x2="31.9799" y2="348.177">
	<stop  offset="0" style="stop-color:#FFFFFF"/>
	<stop  offset="1" style="stop-color:#000000"/>
</linearGradient>
<circle style="fill:url(#SVGID_00000047049759487057172320000003843201563195280778_);" cx="84.1" cy="307" r="52.5"/>
<linearGradient id="SVGID_00000029011731308246019340000004626737742348875926_" gradientUnits="userSpaceOnUse" x1="324.1727" y1="263.998" x2="406.1727" y2="343.998">
	<stop  offset="0" style="stop-color:#FFFFFF"/>
	<stop  offset="1" style="stop-color:#000000"/>
</linearGradient>
<circle style="fill:url(#SVGID_00000029011731308246019340000004626737742348875926_);" cx="368.3" cy="307" r="52.5"/>
<path class="st3" d="M50,225.5c0-67.1,37.8-125.4,93.2-154.8c2.6-1.4,4.2-4.1,4.2-7.1l0,0c0-6-6.4-9.9-11.7-7.1
	C75.2,88.6,34,152.2,34,225.5c0,1.9,0,3.8,0.1,5.7c0.2,6.2,7,9.9,12.3,6.6l0,0c2.4-1.5,3.8-4.2,3.7-7C50,229.1,50,227.3,50,225.5
	L50,225.5z"/>
<path class="st3" d="M301.4,67.9c60.4,29.3,96.4,88.7,98.6,151.4c0.1,3,1.8,5.6,4.5,6.9l0,0c5.4,2.6,11.7-1.4,11.5-7.4
	c-2.4-68.4-41.7-133.3-107.6-165.2c-1.7-0.8-3.5-1.7-5.2-2.4c-5.7-2.5-11.9,2-11.3,8.2l0,0c0.3,2.8,2.1,5.3,4.7,6.4
	C298.2,66.4,299.8,67.1,301.4,67.9L301.4,67.9z"/>
<path class="st3" d="M313.1,376.9c-58.1,33.6-127.4,30.2-180.7-3.1c-2.5-1.6-5.7-1.6-8.2-0.1l0,0c-5.2,3-5.4,10.5-0.3,13.7
	c58.1,36.3,133.8,40.1,197.2,3.4c1.7-1,3.3-2,4.9-3c5.3-3.3,5-11-0.5-13.9l0,0c-2.5-1.3-5.5-1.2-7.9,0.3
	C316.1,375.1,314.6,376,313.1,376.9L313.1,376.9z"/>
</svg>
