<?xml version="1.0" encoding="UTF-8"?>
<svg id="Layer_2" data-name="Layer 2" xmlns="http://www.w3.org/2000/svg" viewBox="0 0 450 450">
  <defs>
    <style>
      .cls-1 {
        fill: #fff;
      }

      .cls-2 {
        fill: #231f20;
      }
    </style>
  </defs>
  <g id="Layer_1-2" data-name="Layer 1">
    <circle class="cls-1" cx="225" cy="225" r="225"/>
    <circle class="cls-2" cx="219.67" cy="60.25" r="52.5"/>
    <circle class="cls-2" cx="84.09" cy="307.01" r="52.5"/>
    <circle class="cls-2" cx="368.26" cy="307.01" r="52.5"/>
    <path class="cls-2" d="m50,225.51c0-67.12,37.79-125.4,93.25-154.76,2.61-1.38,4.25-4.1,4.25-7.06h0c0-6.01-6.4-9.91-11.71-7.1-60.54,32.04-101.79,95.66-101.79,168.92,0,1.92.03,3.83.08,5.74.18,6.2,7.01,9.87,12.26,6.57h0c2.4-1.51,3.82-4.17,3.74-7.01-.05-1.76-.08-3.53-.08-5.3Z"/>
    <path class="cls-2" d="m301.37,67.89c60.4,29.26,96.38,88.69,98.62,151.4.11,2.96,1.84,5.61,4.5,6.9h0c5.41,2.62,11.71-1.44,11.49-7.44-2.44-68.45-41.71-133.31-107.64-165.25-1.73-.84-3.46-1.65-5.2-2.43-5.66-2.54-11.94,2-11.26,8.17h0c.31,2.82,2.09,5.26,4.68,6.42,1.61.72,3.21,1.46,4.81,2.24Z"/>
    <path class="cls-2" d="m313.07,376.89c-58.07,33.65-127.45,30.17-180.66-3.1-2.51-1.57-5.68-1.62-8.24-.14h0c-5.2,3.01-5.37,10.5-.27,13.69,58.07,36.32,133.8,40.12,197.19,3.39,1.66-.96,3.3-1.95,4.92-2.95,5.27-3.27,5.03-11.01-.46-13.91h0c-2.51-1.32-5.53-1.22-7.94.28-1.5.93-3.01,1.84-4.55,2.73Z"/>
  </g>
</svg>