<?xml version="1.0" encoding="UTF-8"?>
<svg id="Layer_2" data-name="Layer 2" xmlns="http://www.w3.org/2000/svg" viewBox="0 0 485 485">
  <defs>
    <style>
      .cls-1 {
        fill: #fff;
        stroke: #231f20;
        stroke-miterlimit: 10;
      }
    </style>
  </defs>
  <g id="Layer_1-2" data-name="Layer 1">
    <circle class="cls-1" cx="242.5" cy="242.5" r="242"/>
    <path d="m344.76,73.62h0c0,7.11,3.37,13.8,9.09,18.03,56.82,42,89.07,115.33,71.23,194.49-15.63,69.31-70.2,123.66-139.55,139.08-122.28,27.18-230.52-65.13-230.52-182.71,0-61.7,29.8-116.42,75.79-150.59,4.51-3.35,7.15-8.65,7.15-14.27h0c0-14.59-16.63-22.92-28.34-14.21C58.14,101.67,23.73,161.58,19.86,229.67c-7.5,132.09,102.13,242.32,234.25,235.54,117.76-6.04,211.39-103.44,211.39-222.7,0-75.35-37.38-141.96-94.61-182.33-10.99-7.75-26.14,0-26.14,13.44Z"/>
    <rect x="222.2" y="22.82" width="40.61" height="231.32" rx="20.3" ry="20.3"/>
  </g>
</svg>