<?xml version="1.0" encoding="UTF-8"?>
<svg id="Layer_2" data-name="Layer 2" xmlns="http://www.w3.org/2000/svg" viewBox="0 0 425.36 156.77">
  <defs>
    <style>
      .cls-1 {
        fill: #fff;
      }

      .cls-2 {
        fill: #231f20;
      }
    </style>
  </defs>
  <g id="Layer_1-2" data-name="Layer 1">
    <rect class="cls-1" x="0" y="0" width="425.36" height="156.77" rx="78.38" ry="78.38"/>
    <path class="cls-2" d="m97.37,123.72V44.98h-22.56c-10.18,0-18.44-8.25-18.44-18.44h0c0-10.03,8.13-18.16,18.16-18.16h111.04s0,36.6,0,36.6h-41v103.4h-22.54c-13.62,0-24.66-11.04-24.66-24.66Z"/>
    <path class="cls-2" d="m189.42,148.38V8.38h38.8l56,91.4h-20.4l54.4-91.4h18.56c11.19,0,20.26,9.05,20.3,20.24l.27,94.38c.04,14.01-11.3,25.38-25.31,25.38h-17.62l-.4-75.2h6.8l-37.2,62.6h-20.8l-38.8-62.6h8.4v75.2h-43Z"/>
  </g>
</svg>