<?xml version="1.0" encoding="utf-8"?>
<!-- Generator: Adobe Illustrator 27.2.0, SVG Export Plug-In . SVG Version: 6.00 Build 0)  -->
<svg version="1.1" id="Layer_2_00000109004576543589156990000005172585455809963951_"
	 xmlns="http://www.w3.org/2000/svg" xmlns:xlink="http://www.w3.org/1999/xlink" x="0px" y="0px" viewBox="0 0 425.4 156.8"
	 style="enable-background:new 0 0 425.4 156.8;" xml:space="preserve">
<style type="text/css">
	.st0{fill:#79D0EA;}
	.st1{fill:#231F20;}
</style>
<path class="st0" d="M87.2,0h150.3l35.9,58.9L309,0h22.6c21.5,0,35.3,7.6,35.9,28.6c0.7,24.2,0,96.7,0,96.7
	c0,23.4-17.8,31.5-35.9,31.5l-24.3,0l0.3-46.5l-18.7,35.7l-31-1.4l-17.7-30.6l0.3,42.7h-62.3l0.3-102.7l-25.2,0.7l0.7,102l-42.9,0
	c-8.3,0-24.9-4.8-24.9-39l-0.7-51.4c0-15.1-34.1-14.9-37.1-28.3C42,9.3,61.5,0,87.2,0z"/>
<path class="st1" d="M97.4,123.7V45H74.8c-10.2,0-18.4-8.2-18.4-18.4l0,0c0-10,8.1-18.2,18.2-18.2h111V45h-41v103.4H122
	C108.4,148.4,97.4,137.3,97.4,123.7z"/>
<path class="st1" d="M189.4,148.4V8.4h38.8l56,91.4h-20.4l54.4-91.4h18.6c11.2,0,20.3,9,20.3,20.2l0.3,94.4
	c0,14-11.3,25.4-25.3,25.4h-17.6L314,73.2h6.8l-37.2,62.6h-20.8L224,73.2h8.4v75.2H189.4L189.4,148.4z"/>
</svg>
