<?xml version="1.0" encoding="utf-8"?>
<!-- Generator: Adobe Illustrator 27.2.0, SVG Export Plug-In . SVG Version: 6.00 Build 0)  -->
<svg version="1.1" id="Layer_2_00000147194663058215616870000017695355325180746943_"
	 xmlns="http://www.w3.org/2000/svg" xmlns:xlink="http://www.w3.org/1999/xlink" x="0px" y="0px" viewBox="0 0 371.4 47.1"
	 style="enable-background:new 0 0 371.4 47.1;" xml:space="preserve">
<style type="text/css">
	.st0{fill:#FFFFFF;}
	.st1{fill:#231F20;}
</style>
<g id="Layer_1-2">
	<path class="st0" d="M23.6,0h324.3c13,0,23.6,10.5,23.6,23.6v0c0,13-10.5,23.6-23.6,23.6H23.6C10.5,47.1,0,36.6,0,23.6v0
		C0,10.5,10.5,0,23.6,0z"/>
	<path class="st1" d="M25.2,2.8h321.5c11.5,0,20.8,9.3,20.8,20.8v0c0,11.5-9.3,20.8-20.8,20.8H25.2C13.7,44.3,4.4,35,4.4,23.6v0
		C4.4,12.1,13.7,2.8,25.2,2.8z"/>
</g>
</svg>
